<?xml version="1.0" standalone="no"?>
<!DOCTYPE svg PUBLIC "-//W3C//DTD SVG 20010904//EN"
 "http://www.w3.org/TR/2001/REC-SVG-20010904/DTD/svg10.dtd">
<svg version="1.0" xmlns="http://www.w3.org/2000/svg"
 width="256.000000pt" height="253.000000pt" viewBox="0 0 256.000000 253.000000"
 preserveAspectRatio="xMidYMid meet">

<g transform="translate(0.000000,253.000000) scale(0.100000,-0.100000)"
fill="#e06222" stroke="none">
<path d="M2470 2518 c-312 -49 -618 -143 -883 -271 l-88 -42 -2 -523 -2 -522
265 0 265 0 91 138 c155 233 242 400 323 620 99 269 144 559 94 601 -4 4 -33
4 -63 -1z"/>
<path d="M1170 2003 c-209 -143 -456 -369 -603 -553 -260 -324 -446 -709 -521
-1080 -15 -76 -46 -306 -46 -346 l0 -21 133 24 c431 78 817 231 1167 465 182
121 284 203 430 345 l115 112 -287 1 -288 0 -2 559 -3 559 -95 -65z"/>
</g>
</svg>
